<mxfile host="app.diagrams.net" agent="Mozilla/5.0 (Macintosh; Intel Mac OS X 10_15_7) AppleWebKit/537.36 (KHTML, like Gecko) Chrome/139.0.0.0 Safari/537.36" version="28.2.0">
  <diagram name="Page-1" id="tE7KO-GYQ_vaKCPp8BrA">
    <mxGraphModel dx="759" dy="479" grid="1" gridSize="10" guides="1" tooltips="1" connect="1" arrows="1" fold="1" page="1" pageScale="1" pageWidth="850" pageHeight="1100" math="0" shadow="0">
      <root>
        <mxCell id="0" />
        <mxCell id="1" parent="0" />
        <mxCell id="mf1PFB1ApHiCJU8T5HYp-1" value="" style="pointerEvents=1;verticalLabelPosition=bottom;shadow=0;dashed=0;align=center;html=1;verticalAlign=top;shape=mxgraph.electrical.waveforms.sine_wave;rotation=-30;" vertex="1" parent="1">
          <mxGeometry x="152.99736085342113" y="349.9977442565042" width="110" height="66.18" as="geometry" />
        </mxCell>
        <mxCell id="mf1PFB1ApHiCJU8T5HYp-2" value="" style="ellipse;whiteSpace=wrap;html=1;aspect=fixed;" vertex="1" parent="1">
          <mxGeometry x="232.99736085342113" y="219.99774425650418" width="170" height="170" as="geometry" />
        </mxCell>
        <mxCell id="mf1PFB1ApHiCJU8T5HYp-3" value="" style="pointerEvents=1;verticalLabelPosition=bottom;shadow=0;dashed=0;align=center;html=1;verticalAlign=top;shape=mxgraph.electrical.waveforms.sine_wave;rotation=30;" vertex="1" parent="1">
          <mxGeometry x="149.99639720814412" y="189.9967806112271" width="110" height="66.18" as="geometry" />
        </mxCell>
        <mxCell id="mf1PFB1ApHiCJU8T5HYp-4" value="&lt;font style=&quot;font-size: 20px;&quot;&gt;ω&lt;sub style=&quot;&quot;&gt;p&lt;/sub&gt;&lt;/font&gt;" style="text;html=1;align=center;verticalAlign=middle;whiteSpace=wrap;rounded=0;" vertex="1" parent="1">
          <mxGeometry x="192.99736085342113" y="179.99774425650418" width="60" height="30" as="geometry" />
        </mxCell>
        <mxCell id="mf1PFB1ApHiCJU8T5HYp-5" value="&lt;font style=&quot;font-size: 20px;&quot;&gt;ω&lt;/font&gt;&lt;font style=&quot;font-size: 16.6667px;&quot;&gt;&lt;sub&gt;c&lt;/sub&gt;&lt;/font&gt;" style="text;html=1;align=center;verticalAlign=middle;whiteSpace=wrap;rounded=0;" vertex="1" parent="1">
          <mxGeometry x="177.99736085342113" y="389.9977442565042" width="60" height="30" as="geometry" />
        </mxCell>
        <mxCell id="mf1PFB1ApHiCJU8T5HYp-6" value="" style="group" vertex="1" connectable="0" parent="1">
          <mxGeometry x="270.9973608534211" y="237.99774425650418" width="30" height="30" as="geometry" />
        </mxCell>
        <mxCell id="mf1PFB1ApHiCJU8T5HYp-7" value="" style="verticalLabelPosition=bottom;verticalAlign=top;html=1;shape=mxgraph.basic.arc;startAngle=0.13289482745459905;endAngle=0.1;strokeWidth=0.5;" vertex="1" parent="mf1PFB1ApHiCJU8T5HYp-6">
          <mxGeometry width="30" height="30" as="geometry" />
        </mxCell>
        <mxCell id="mf1PFB1ApHiCJU8T5HYp-8" value="" style="group" vertex="1" connectable="0" parent="mf1PFB1ApHiCJU8T5HYp-6">
          <mxGeometry x="11.1" y="10.65" width="7.8" height="8.7" as="geometry" />
        </mxCell>
        <mxCell id="mf1PFB1ApHiCJU8T5HYp-9" value="" style="ellipse;whiteSpace=wrap;html=1;aspect=fixed;" vertex="1" parent="mf1PFB1ApHiCJU8T5HYp-8">
          <mxGeometry x="1.4999999999999998" y="4.199999999999999" width="2.7247706422018347" height="2.7247706422018347" as="geometry" />
        </mxCell>
        <mxCell id="mf1PFB1ApHiCJU8T5HYp-10" value="" style="ellipse;whiteSpace=wrap;html=1;aspect=fixed;" vertex="1" parent="mf1PFB1ApHiCJU8T5HYp-8">
          <mxGeometry y="1.4999999999999996" width="2.7247706422018347" height="2.7247706422018347" as="geometry" />
        </mxCell>
        <mxCell id="mf1PFB1ApHiCJU8T5HYp-11" value="" style="ellipse;whiteSpace=wrap;html=1;aspect=fixed;" vertex="1" parent="mf1PFB1ApHiCJU8T5HYp-8">
          <mxGeometry x="3.3" y="3.2999999999999994" width="2.7247706422018347" height="2.7247706422018347" as="geometry" />
        </mxCell>
        <mxCell id="mf1PFB1ApHiCJU8T5HYp-12" value="" style="ellipse;whiteSpace=wrap;html=1;aspect=fixed;" vertex="1" parent="mf1PFB1ApHiCJU8T5HYp-8">
          <mxGeometry x="3.3" y="1.7999999999999998" width="2.7247706422018347" height="2.7247706422018347" as="geometry" />
        </mxCell>
        <mxCell id="mf1PFB1ApHiCJU8T5HYp-13" value="" style="ellipse;whiteSpace=wrap;html=1;aspect=fixed;" vertex="1" parent="mf1PFB1ApHiCJU8T5HYp-8">
          <mxGeometry x="0.3" y="3.2999999999999994" width="2.7247706422018347" height="2.7247706422018347" as="geometry" />
        </mxCell>
        <mxCell id="mf1PFB1ApHiCJU8T5HYp-14" value="" style="ellipse;whiteSpace=wrap;html=1;aspect=fixed;" vertex="1" parent="mf1PFB1ApHiCJU8T5HYp-8">
          <mxGeometry x="1.4999999999999998" width="2.7247706422018347" height="2.7247706422018347" as="geometry" />
        </mxCell>
        <mxCell id="mf1PFB1ApHiCJU8T5HYp-15" value="" style="ellipse;whiteSpace=wrap;html=1;aspect=fixed;" vertex="1" parent="mf1PFB1ApHiCJU8T5HYp-6">
          <mxGeometry x="23.7" y="2.2499999999999996" width="1.81651376146789" height="1.81651376146789" as="geometry" />
        </mxCell>
        <mxCell id="mf1PFB1ApHiCJU8T5HYp-16" value="" style="group" vertex="1" connectable="0" parent="1">
          <mxGeometry x="336.9973608534211" y="334.1777442565041" width="30" height="30" as="geometry" />
        </mxCell>
        <mxCell id="mf1PFB1ApHiCJU8T5HYp-17" value="" style="verticalLabelPosition=bottom;verticalAlign=top;html=1;shape=mxgraph.basic.arc;startAngle=0.13289482745459905;endAngle=0.1;strokeWidth=0.5;" vertex="1" parent="mf1PFB1ApHiCJU8T5HYp-16">
          <mxGeometry width="30" height="30" as="geometry" />
        </mxCell>
        <mxCell id="mf1PFB1ApHiCJU8T5HYp-18" value="" style="group" vertex="1" connectable="0" parent="mf1PFB1ApHiCJU8T5HYp-16">
          <mxGeometry x="11.1" y="10.65" width="7.8" height="8.7" as="geometry" />
        </mxCell>
        <mxCell id="mf1PFB1ApHiCJU8T5HYp-19" value="" style="ellipse;whiteSpace=wrap;html=1;aspect=fixed;" vertex="1" parent="mf1PFB1ApHiCJU8T5HYp-18">
          <mxGeometry x="1.4999999999999998" y="4.199999999999999" width="2.7247706422018347" height="2.7247706422018347" as="geometry" />
        </mxCell>
        <mxCell id="mf1PFB1ApHiCJU8T5HYp-20" value="" style="ellipse;whiteSpace=wrap;html=1;aspect=fixed;" vertex="1" parent="mf1PFB1ApHiCJU8T5HYp-18">
          <mxGeometry y="1.4999999999999996" width="2.7247706422018347" height="2.7247706422018347" as="geometry" />
        </mxCell>
        <mxCell id="mf1PFB1ApHiCJU8T5HYp-21" value="" style="ellipse;whiteSpace=wrap;html=1;aspect=fixed;" vertex="1" parent="mf1PFB1ApHiCJU8T5HYp-18">
          <mxGeometry x="3.3" y="3.2999999999999994" width="2.7247706422018347" height="2.7247706422018347" as="geometry" />
        </mxCell>
        <mxCell id="mf1PFB1ApHiCJU8T5HYp-22" value="" style="ellipse;whiteSpace=wrap;html=1;aspect=fixed;" vertex="1" parent="mf1PFB1ApHiCJU8T5HYp-18">
          <mxGeometry x="3.3" y="1.7999999999999998" width="2.7247706422018347" height="2.7247706422018347" as="geometry" />
        </mxCell>
        <mxCell id="mf1PFB1ApHiCJU8T5HYp-23" value="" style="ellipse;whiteSpace=wrap;html=1;aspect=fixed;" vertex="1" parent="mf1PFB1ApHiCJU8T5HYp-18">
          <mxGeometry x="0.3" y="3.2999999999999994" width="2.7247706422018347" height="2.7247706422018347" as="geometry" />
        </mxCell>
        <mxCell id="mf1PFB1ApHiCJU8T5HYp-24" value="" style="ellipse;whiteSpace=wrap;html=1;aspect=fixed;" vertex="1" parent="mf1PFB1ApHiCJU8T5HYp-18">
          <mxGeometry x="1.4999999999999998" width="2.7247706422018347" height="2.7247706422018347" as="geometry" />
        </mxCell>
        <mxCell id="mf1PFB1ApHiCJU8T5HYp-25" value="" style="ellipse;whiteSpace=wrap;html=1;aspect=fixed;" vertex="1" parent="mf1PFB1ApHiCJU8T5HYp-16">
          <mxGeometry x="23.7" y="2.2499999999999996" width="1.81651376146789" height="1.81651376146789" as="geometry" />
        </mxCell>
        <mxCell id="mf1PFB1ApHiCJU8T5HYp-26" value="" style="pointerEvents=1;verticalLabelPosition=bottom;shadow=0;dashed=0;align=center;html=1;verticalAlign=top;shape=mxgraph.electrical.waveforms.sine_wave;rotation=0;" vertex="1" parent="1">
          <mxGeometry x="232.99736085342113" y="269.9977442565042" width="170" height="66.18" as="geometry" />
        </mxCell>
        <mxCell id="mf1PFB1ApHiCJU8T5HYp-27" value="" style="group" vertex="1" connectable="0" parent="1">
          <mxGeometry x="356.99736085342107" y="277.0877442565042" width="30" height="30" as="geometry" />
        </mxCell>
        <mxCell id="mf1PFB1ApHiCJU8T5HYp-28" value="" style="verticalLabelPosition=bottom;verticalAlign=top;html=1;shape=mxgraph.basic.arc;startAngle=0.13289482745459905;endAngle=0.1;strokeWidth=0.5;" vertex="1" parent="mf1PFB1ApHiCJU8T5HYp-27">
          <mxGeometry width="30" height="30" as="geometry" />
        </mxCell>
        <mxCell id="mf1PFB1ApHiCJU8T5HYp-29" value="" style="group" vertex="1" connectable="0" parent="mf1PFB1ApHiCJU8T5HYp-27">
          <mxGeometry x="11.1" y="10.65" width="7.8" height="8.7" as="geometry" />
        </mxCell>
        <mxCell id="mf1PFB1ApHiCJU8T5HYp-30" value="" style="ellipse;whiteSpace=wrap;html=1;aspect=fixed;" vertex="1" parent="mf1PFB1ApHiCJU8T5HYp-29">
          <mxGeometry x="1.4999999999999998" y="4.199999999999999" width="2.7247706422018347" height="2.7247706422018347" as="geometry" />
        </mxCell>
        <mxCell id="mf1PFB1ApHiCJU8T5HYp-31" value="" style="ellipse;whiteSpace=wrap;html=1;aspect=fixed;" vertex="1" parent="mf1PFB1ApHiCJU8T5HYp-29">
          <mxGeometry y="1.4999999999999996" width="2.7247706422018347" height="2.7247706422018347" as="geometry" />
        </mxCell>
        <mxCell id="mf1PFB1ApHiCJU8T5HYp-32" value="" style="ellipse;whiteSpace=wrap;html=1;aspect=fixed;" vertex="1" parent="mf1PFB1ApHiCJU8T5HYp-29">
          <mxGeometry x="3.3" y="3.2999999999999994" width="2.7247706422018347" height="2.7247706422018347" as="geometry" />
        </mxCell>
        <mxCell id="mf1PFB1ApHiCJU8T5HYp-33" value="" style="ellipse;whiteSpace=wrap;html=1;aspect=fixed;" vertex="1" parent="mf1PFB1ApHiCJU8T5HYp-29">
          <mxGeometry x="3.3" y="1.7999999999999998" width="2.7247706422018347" height="2.7247706422018347" as="geometry" />
        </mxCell>
        <mxCell id="mf1PFB1ApHiCJU8T5HYp-34" value="" style="ellipse;whiteSpace=wrap;html=1;aspect=fixed;" vertex="1" parent="mf1PFB1ApHiCJU8T5HYp-29">
          <mxGeometry x="0.3" y="3.2999999999999994" width="2.7247706422018347" height="2.7247706422018347" as="geometry" />
        </mxCell>
        <mxCell id="mf1PFB1ApHiCJU8T5HYp-35" value="" style="ellipse;whiteSpace=wrap;html=1;aspect=fixed;" vertex="1" parent="mf1PFB1ApHiCJU8T5HYp-29">
          <mxGeometry x="1.4999999999999998" width="2.7247706422018347" height="2.7247706422018347" as="geometry" />
        </mxCell>
        <mxCell id="mf1PFB1ApHiCJU8T5HYp-36" value="" style="ellipse;whiteSpace=wrap;html=1;aspect=fixed;" vertex="1" parent="mf1PFB1ApHiCJU8T5HYp-27">
          <mxGeometry x="23.7" y="2.2499999999999996" width="1.81651376146789" height="1.81651376146789" as="geometry" />
        </mxCell>
        <mxCell id="mf1PFB1ApHiCJU8T5HYp-37" value="" style="group" vertex="1" connectable="0" parent="1">
          <mxGeometry x="246.99736085342113" y="299.1777442565041" width="30" height="30" as="geometry" />
        </mxCell>
        <mxCell id="mf1PFB1ApHiCJU8T5HYp-38" value="" style="verticalLabelPosition=bottom;verticalAlign=top;html=1;shape=mxgraph.basic.arc;startAngle=0.13289482745459905;endAngle=0.1;strokeWidth=0.5;" vertex="1" parent="mf1PFB1ApHiCJU8T5HYp-37">
          <mxGeometry width="30" height="30" as="geometry" />
        </mxCell>
        <mxCell id="mf1PFB1ApHiCJU8T5HYp-39" value="" style="group" vertex="1" connectable="0" parent="mf1PFB1ApHiCJU8T5HYp-37">
          <mxGeometry x="11.1" y="10.65" width="7.8" height="8.7" as="geometry" />
        </mxCell>
        <mxCell id="mf1PFB1ApHiCJU8T5HYp-40" value="" style="ellipse;whiteSpace=wrap;html=1;aspect=fixed;" vertex="1" parent="mf1PFB1ApHiCJU8T5HYp-39">
          <mxGeometry x="1.4999999999999998" y="4.199999999999999" width="2.7247706422018347" height="2.7247706422018347" as="geometry" />
        </mxCell>
        <mxCell id="mf1PFB1ApHiCJU8T5HYp-41" value="" style="ellipse;whiteSpace=wrap;html=1;aspect=fixed;" vertex="1" parent="mf1PFB1ApHiCJU8T5HYp-39">
          <mxGeometry y="1.4999999999999996" width="2.7247706422018347" height="2.7247706422018347" as="geometry" />
        </mxCell>
        <mxCell id="mf1PFB1ApHiCJU8T5HYp-42" value="" style="ellipse;whiteSpace=wrap;html=1;aspect=fixed;" vertex="1" parent="mf1PFB1ApHiCJU8T5HYp-39">
          <mxGeometry x="3.3" y="3.2999999999999994" width="2.7247706422018347" height="2.7247706422018347" as="geometry" />
        </mxCell>
        <mxCell id="mf1PFB1ApHiCJU8T5HYp-43" value="" style="ellipse;whiteSpace=wrap;html=1;aspect=fixed;" vertex="1" parent="mf1PFB1ApHiCJU8T5HYp-39">
          <mxGeometry x="3.3" y="1.7999999999999998" width="2.7247706422018347" height="2.7247706422018347" as="geometry" />
        </mxCell>
        <mxCell id="mf1PFB1ApHiCJU8T5HYp-44" value="" style="ellipse;whiteSpace=wrap;html=1;aspect=fixed;" vertex="1" parent="mf1PFB1ApHiCJU8T5HYp-39">
          <mxGeometry x="0.3" y="3.2999999999999994" width="2.7247706422018347" height="2.7247706422018347" as="geometry" />
        </mxCell>
        <mxCell id="mf1PFB1ApHiCJU8T5HYp-45" value="" style="ellipse;whiteSpace=wrap;html=1;aspect=fixed;" vertex="1" parent="mf1PFB1ApHiCJU8T5HYp-39">
          <mxGeometry x="1.4999999999999998" width="2.7247706422018347" height="2.7247706422018347" as="geometry" />
        </mxCell>
        <mxCell id="mf1PFB1ApHiCJU8T5HYp-46" value="" style="ellipse;whiteSpace=wrap;html=1;aspect=fixed;" vertex="1" parent="mf1PFB1ApHiCJU8T5HYp-37">
          <mxGeometry x="23.7" y="2.2499999999999996" width="1.81651376146789" height="1.81651376146789" as="geometry" />
        </mxCell>
        <mxCell id="mf1PFB1ApHiCJU8T5HYp-47" value="" style="pointerEvents=1;verticalLabelPosition=bottom;shadow=0;dashed=0;align=center;html=1;verticalAlign=top;shape=mxgraph.electrical.waveforms.sine_wave;rotation=0;" vertex="1" parent="1">
          <mxGeometry x="399.99736085342107" y="249.99774425650418" width="170" height="66.18" as="geometry" />
        </mxCell>
        <mxCell id="mf1PFB1ApHiCJU8T5HYp-48" value="" style="pointerEvents=1;verticalLabelPosition=bottom;shadow=0;dashed=0;align=center;html=1;verticalAlign=top;shape=mxgraph.electrical.waveforms.sine_wave;rotation=0;" vertex="1" parent="1">
          <mxGeometry x="399.99736085342107" y="293.8177442565042" width="170" height="66.18" as="geometry" />
        </mxCell>
        <mxCell id="mf1PFB1ApHiCJU8T5HYp-49" value="" style="group" vertex="1" connectable="0" parent="1">
          <mxGeometry x="282.9973608534211" y="339.9977442565042" width="30" height="30" as="geometry" />
        </mxCell>
        <mxCell id="mf1PFB1ApHiCJU8T5HYp-50" value="" style="verticalLabelPosition=bottom;verticalAlign=top;html=1;shape=mxgraph.basic.arc;startAngle=0.13289482745459905;endAngle=0.1;strokeWidth=0.5;" vertex="1" parent="mf1PFB1ApHiCJU8T5HYp-49">
          <mxGeometry width="30" height="30" as="geometry" />
        </mxCell>
        <mxCell id="mf1PFB1ApHiCJU8T5HYp-51" value="" style="group" vertex="1" connectable="0" parent="mf1PFB1ApHiCJU8T5HYp-49">
          <mxGeometry x="11.1" y="10.65" width="7.8" height="8.7" as="geometry" />
        </mxCell>
        <mxCell id="mf1PFB1ApHiCJU8T5HYp-52" value="" style="ellipse;whiteSpace=wrap;html=1;aspect=fixed;" vertex="1" parent="mf1PFB1ApHiCJU8T5HYp-51">
          <mxGeometry x="1.4999999999999998" y="4.199999999999999" width="2.7247706422018347" height="2.7247706422018347" as="geometry" />
        </mxCell>
        <mxCell id="mf1PFB1ApHiCJU8T5HYp-53" value="" style="ellipse;whiteSpace=wrap;html=1;aspect=fixed;" vertex="1" parent="mf1PFB1ApHiCJU8T5HYp-51">
          <mxGeometry y="1.4999999999999996" width="2.7247706422018347" height="2.7247706422018347" as="geometry" />
        </mxCell>
        <mxCell id="mf1PFB1ApHiCJU8T5HYp-54" value="" style="ellipse;whiteSpace=wrap;html=1;aspect=fixed;" vertex="1" parent="mf1PFB1ApHiCJU8T5HYp-51">
          <mxGeometry x="3.3" y="3.2999999999999994" width="2.7247706422018347" height="2.7247706422018347" as="geometry" />
        </mxCell>
        <mxCell id="mf1PFB1ApHiCJU8T5HYp-55" value="" style="ellipse;whiteSpace=wrap;html=1;aspect=fixed;" vertex="1" parent="mf1PFB1ApHiCJU8T5HYp-51">
          <mxGeometry x="3.3" y="1.7999999999999998" width="2.7247706422018347" height="2.7247706422018347" as="geometry" />
        </mxCell>
        <mxCell id="mf1PFB1ApHiCJU8T5HYp-56" value="" style="ellipse;whiteSpace=wrap;html=1;aspect=fixed;" vertex="1" parent="mf1PFB1ApHiCJU8T5HYp-51">
          <mxGeometry x="0.3" y="3.2999999999999994" width="2.7247706422018347" height="2.7247706422018347" as="geometry" />
        </mxCell>
        <mxCell id="mf1PFB1ApHiCJU8T5HYp-57" value="" style="ellipse;whiteSpace=wrap;html=1;aspect=fixed;" vertex="1" parent="mf1PFB1ApHiCJU8T5HYp-51">
          <mxGeometry x="1.4999999999999998" width="2.7247706422018347" height="2.7247706422018347" as="geometry" />
        </mxCell>
        <mxCell id="mf1PFB1ApHiCJU8T5HYp-58" value="" style="ellipse;whiteSpace=wrap;html=1;aspect=fixed;" vertex="1" parent="mf1PFB1ApHiCJU8T5HYp-49">
          <mxGeometry x="23.7" y="2.2499999999999996" width="1.81651376146789" height="1.81651376146789" as="geometry" />
        </mxCell>
        <mxCell id="mf1PFB1ApHiCJU8T5HYp-59" value="" style="group" vertex="1" connectable="0" parent="1">
          <mxGeometry x="322.9973608534211" y="234.99774425650418" width="30" height="30" as="geometry" />
        </mxCell>
        <mxCell id="mf1PFB1ApHiCJU8T5HYp-60" value="" style="verticalLabelPosition=bottom;verticalAlign=top;html=1;shape=mxgraph.basic.arc;startAngle=0.13289482745459905;endAngle=0.1;strokeWidth=0.5;" vertex="1" parent="mf1PFB1ApHiCJU8T5HYp-59">
          <mxGeometry width="30" height="30" as="geometry" />
        </mxCell>
        <mxCell id="mf1PFB1ApHiCJU8T5HYp-61" value="" style="group" vertex="1" connectable="0" parent="mf1PFB1ApHiCJU8T5HYp-59">
          <mxGeometry x="11.1" y="10.65" width="7.8" height="8.7" as="geometry" />
        </mxCell>
        <mxCell id="mf1PFB1ApHiCJU8T5HYp-62" value="" style="ellipse;whiteSpace=wrap;html=1;aspect=fixed;" vertex="1" parent="mf1PFB1ApHiCJU8T5HYp-61">
          <mxGeometry x="1.4999999999999998" y="4.199999999999999" width="2.7247706422018347" height="2.7247706422018347" as="geometry" />
        </mxCell>
        <mxCell id="mf1PFB1ApHiCJU8T5HYp-63" value="" style="ellipse;whiteSpace=wrap;html=1;aspect=fixed;" vertex="1" parent="mf1PFB1ApHiCJU8T5HYp-61">
          <mxGeometry y="1.4999999999999996" width="2.7247706422018347" height="2.7247706422018347" as="geometry" />
        </mxCell>
        <mxCell id="mf1PFB1ApHiCJU8T5HYp-64" value="" style="ellipse;whiteSpace=wrap;html=1;aspect=fixed;" vertex="1" parent="mf1PFB1ApHiCJU8T5HYp-61">
          <mxGeometry x="3.3" y="3.2999999999999994" width="2.7247706422018347" height="2.7247706422018347" as="geometry" />
        </mxCell>
        <mxCell id="mf1PFB1ApHiCJU8T5HYp-65" value="" style="ellipse;whiteSpace=wrap;html=1;aspect=fixed;" vertex="1" parent="mf1PFB1ApHiCJU8T5HYp-61">
          <mxGeometry x="3.3" y="1.7999999999999998" width="2.7247706422018347" height="2.7247706422018347" as="geometry" />
        </mxCell>
        <mxCell id="mf1PFB1ApHiCJU8T5HYp-66" value="" style="ellipse;whiteSpace=wrap;html=1;aspect=fixed;" vertex="1" parent="mf1PFB1ApHiCJU8T5HYp-61">
          <mxGeometry x="0.3" y="3.2999999999999994" width="2.7247706422018347" height="2.7247706422018347" as="geometry" />
        </mxCell>
        <mxCell id="mf1PFB1ApHiCJU8T5HYp-67" value="" style="ellipse;whiteSpace=wrap;html=1;aspect=fixed;" vertex="1" parent="mf1PFB1ApHiCJU8T5HYp-61">
          <mxGeometry x="1.4999999999999998" width="2.7247706422018347" height="2.7247706422018347" as="geometry" />
        </mxCell>
        <mxCell id="mf1PFB1ApHiCJU8T5HYp-68" value="" style="ellipse;whiteSpace=wrap;html=1;aspect=fixed;" vertex="1" parent="mf1PFB1ApHiCJU8T5HYp-59">
          <mxGeometry x="23.7" y="2.2499999999999996" width="1.81651376146789" height="1.81651376146789" as="geometry" />
        </mxCell>
        <mxCell id="mf1PFB1ApHiCJU8T5HYp-69" value="&lt;font style=&quot;font-size: 15px;&quot;&gt;Spherical resonator containing many 3-level (Λ-system&lt;/font&gt;&lt;span style=&quot;font-size: 15px; background-color: transparent; color: light-dark(rgb(0, 0, 0), rgb(255, 255, 255));&quot;&gt;) atoms&lt;/span&gt;" style="text;html=1;align=center;verticalAlign=middle;whiteSpace=wrap;rounded=0;" vertex="1" parent="1">
          <mxGeometry x="238" y="416.18" width="173" height="30" as="geometry" />
        </mxCell>
        <mxCell id="mf1PFB1ApHiCJU8T5HYp-71" value="&lt;font style=&quot;font-size: 20px;&quot;&gt;ω&lt;sub&gt;b&lt;/sub&gt;&lt;/font&gt;" style="text;html=1;align=center;verticalAlign=middle;whiteSpace=wrap;rounded=0;" vertex="1" parent="1">
          <mxGeometry x="422.99736085342107" y="319.9977442565042" width="60" height="30" as="geometry" />
        </mxCell>
        <mxCell id="mf1PFB1ApHiCJU8T5HYp-72" value="&lt;font style=&quot;font-size: 20px;&quot;&gt;ω&lt;/font&gt;&lt;font style=&quot;font-size: 16.6667px;&quot;&gt;&lt;sub&gt;cav&lt;/sub&gt;&lt;/font&gt;" style="text;html=1;align=center;verticalAlign=middle;whiteSpace=wrap;rounded=0;" vertex="1" parent="1">
          <mxGeometry x="281.9973608534211" y="301.9977442565042" width="60" height="30" as="geometry" />
        </mxCell>
        <mxCell id="mf1PFB1ApHiCJU8T5HYp-73" value="&lt;font style=&quot;font-size: 20px;&quot;&gt;ω&lt;sub style=&quot;&quot;&gt;a&lt;/sub&gt;&lt;/font&gt;" style="text;html=1;align=center;verticalAlign=middle;whiteSpace=wrap;rounded=0;" vertex="1" parent="1">
          <mxGeometry x="425" y="220" width="60" height="30" as="geometry" />
        </mxCell>
        <mxCell id="mf1PFB1ApHiCJU8T5HYp-75" value="" style="endArrow=classic;html=1;rounded=0;strokeWidth=3;" edge="1" parent="1">
          <mxGeometry width="50" height="50" relative="1" as="geometry">
            <mxPoint x="570" y="329" as="sourcePoint" />
            <mxPoint x="577" y="328.81" as="targetPoint" />
          </mxGeometry>
        </mxCell>
        <mxCell id="mf1PFB1ApHiCJU8T5HYp-76" value="" style="endArrow=classic;html=1;rounded=0;strokeWidth=3;" edge="1" parent="1">
          <mxGeometry width="50" height="50" relative="1" as="geometry">
            <mxPoint x="570" y="285.99" as="sourcePoint" />
            <mxPoint x="577" y="285.99" as="targetPoint" />
          </mxGeometry>
        </mxCell>
        <mxCell id="mf1PFB1ApHiCJU8T5HYp-77" value="" style="endArrow=classic;html=1;rounded=0;exitX=0.961;exitY=0.588;exitDx=0;exitDy=0;exitPerimeter=0;strokeWidth=3;" edge="1" parent="1">
          <mxGeometry width="50" height="50" relative="1" as="geometry">
            <mxPoint x="245.00062543405306" y="252.48537399880297" as="sourcePoint" />
            <mxPoint x="252" y="250.9" as="targetPoint" />
          </mxGeometry>
        </mxCell>
        <mxCell id="mf1PFB1ApHiCJU8T5HYp-78" value="" style="endArrow=classic;html=1;rounded=0;entryX=0.142;entryY=0.84;entryDx=0;entryDy=0;entryPerimeter=0;strokeWidth=3;" edge="1" parent="1">
          <mxGeometry width="50" height="50" relative="1" as="geometry">
            <mxPoint x="254" y="368" as="sourcePoint" />
            <mxPoint x="256.13736085342117" y="361.79774425650413" as="targetPoint" />
          </mxGeometry>
        </mxCell>
      </root>
    </mxGraphModel>
  </diagram>
</mxfile>
